<svg xmlns="http://www.w3.org/2000/svg" width="1400" height="820" viewBox="0 0 1400 820">
<defs>
<style>
text { font-family: "Noto Sans CJK SC", "Microsoft YaHei", "PingFang SC", Arial, sans-serif; fill: #1f2937; }
.title { font-size: 28px; font-weight: 700; }
.subtitle { font-size: 14px; fill: #4b5563; }
.axis { font-size: 14px; fill: #374151; }
.tick { font-size: 13px; fill: #6b7280; }
.legend { font-size: 14px; }
.label { font-size: 13px; font-weight: 600; }
</style>
</defs>
<rect width="1400" height="820" fill="#ffffff" rx="18" ry="18"/>
<text x="120" y="48" class="title">2015-2024年国际原油与中国92#汽油价格对比图（含极值标注）</text>
<text x="120" y="74" class="subtitle">左轴：布伦特现货年均价（美元/桶）；右轴：中国92#汽油年均价（元/吨）</text>
<line x1="120" y1="710.0" x2="1240" y2="710.0" stroke="#e5e7eb" stroke-width="1"/>
<text x="104" y="715.0" text-anchor="end" class="tick">35</text>
<line x1="120" y1="586.0" x2="1240" y2="586.0" stroke="#e5e7eb" stroke-width="1"/>
<text x="104" y="591.0" text-anchor="end" class="tick">50</text>
<line x1="120" y1="462.0" x2="1240" y2="462.0" stroke="#e5e7eb" stroke-width="1"/>
<text x="104" y="467.0" text-anchor="end" class="tick">65</text>
<line x1="120" y1="338.0" x2="1240" y2="338.0" stroke="#e5e7eb" stroke-width="1"/>
<text x="104" y="343.0" text-anchor="end" class="tick">80</text>
<line x1="120" y1="214.0" x2="1240" y2="214.0" stroke="#e5e7eb" stroke-width="1"/>
<text x="104" y="219.0" text-anchor="end" class="tick">95</text>
<line x1="120" y1="90.0" x2="1240" y2="90.0" stroke="#e5e7eb" stroke-width="1"/>
<text x="104" y="95.0" text-anchor="end" class="tick">110</text>
<text x="1256" y="715.0" class="tick">5000</text>
<text x="1256" y="591.0" class="tick">5900</text>
<text x="1256" y="467.0" class="tick">6800</text>
<text x="1256" y="343.0" class="tick">7700</text>
<text x="1256" y="219.0" class="tick">8600</text>
<text x="1256" y="95.0" class="tick">9500</text>
<line x1="120" y1="90" x2="120" y2="710" stroke="#9ca3af" stroke-width="1.5"/>
<line x1="1240" y1="90" x2="1240" y2="710" stroke="#9ca3af" stroke-width="1.5"/>
<line x1="120" y1="710" x2="1240" y2="710" stroke="#9ca3af" stroke-width="1.5"/>
<line x1="120.0" y1="710" x2="120.0" y2="718" stroke="#9ca3af" stroke-width="1.2"/>
<text x="120.0" y="740" text-anchor="middle" class="tick">2015</text>
<line x1="244.4" y1="710" x2="244.4" y2="718" stroke="#9ca3af" stroke-width="1.2"/>
<text x="244.4" y="740" text-anchor="middle" class="tick">2016</text>
<line x1="368.9" y1="710" x2="368.9" y2="718" stroke="#9ca3af" stroke-width="1.2"/>
<text x="368.9" y="740" text-anchor="middle" class="tick">2017</text>
<line x1="493.3" y1="710" x2="493.3" y2="718" stroke="#9ca3af" stroke-width="1.2"/>
<text x="493.3" y="740" text-anchor="middle" class="tick">2018</text>
<line x1="617.8" y1="710" x2="617.8" y2="718" stroke="#9ca3af" stroke-width="1.2"/>
<text x="617.8" y="740" text-anchor="middle" class="tick">2019</text>
<line x1="742.2" y1="710" x2="742.2" y2="718" stroke="#9ca3af" stroke-width="1.2"/>
<text x="742.2" y="740" text-anchor="middle" class="tick">2020</text>
<line x1="866.7" y1="710" x2="866.7" y2="718" stroke="#9ca3af" stroke-width="1.2"/>
<text x="866.7" y="740" text-anchor="middle" class="tick">2021</text>
<line x1="991.1" y1="710" x2="991.1" y2="718" stroke="#9ca3af" stroke-width="1.2"/>
<text x="991.1" y="740" text-anchor="middle" class="tick">2022</text>
<line x1="1115.6" y1="710" x2="1115.6" y2="718" stroke="#9ca3af" stroke-width="1.2"/>
<text x="1115.6" y="740" text-anchor="middle" class="tick">2023</text>
<line x1="1240.0" y1="710" x2="1240.0" y2="718" stroke="#9ca3af" stroke-width="1.2"/>
<text x="1240.0" y="740" text-anchor="middle" class="tick">2024</text>
<text x="48" y="72" class="axis" transform="rotate(-90 48,72)">布伦特现货价（美元/桶）</text>
<text x="1318" y="72" class="axis" transform="rotate(90 1318,72)">92#汽油年均价（元/吨）</text>
<line x1="920" y1="52" x2="954" y2="52" stroke="#2563eb" stroke-width="4" stroke-linecap="round"/>
<text x="964" y="57" class="legend">布伦特现货年均价</text>
<line x1="1090" y1="52" x2="1124" y2="52" stroke="#f97316" stroke-width="4" stroke-linecap="round"/>
<text x="1134" y="57" class="legend">中国92#汽油年均价</text>
<polyline fill="none" stroke="#2563eb" stroke-width="4" points="120.0,566.8 244.4,638.6 368.9,551.9 493.3,409.6 617.8,467.8 742.2,652.5 866.7,413.6 991.1,165.0 1115.6,317.4 1240.0,333.7"/>
<polyline fill="none" stroke="#f97316" stroke-width="4" points="120.0,472.1 244.4,616.9 368.9,529.9 493.3,319.3 617.8,461.3 742.2,619.5 866.7,339.5 991.1,160.8 1115.6,191.1 1240.0,230.5"/>
<circle cx="120.0" cy="566.8" r="4.5" fill="#2563eb" stroke="#ffffff" stroke-width="1.5"/>
<circle cx="244.4" cy="638.6" r="4.5" fill="#2563eb" stroke="#ffffff" stroke-width="1.5"/>
<circle cx="368.9" cy="551.9" r="4.5" fill="#2563eb" stroke="#ffffff" stroke-width="1.5"/>
<circle cx="493.3" cy="409.6" r="4.5" fill="#2563eb" stroke="#ffffff" stroke-width="1.5"/>
<circle cx="617.8" cy="467.8" r="4.5" fill="#2563eb" stroke="#ffffff" stroke-width="1.5"/>
<circle cx="742.2" cy="652.5" r="4.5" fill="#2563eb" stroke="#ffffff" stroke-width="1.5"/>
<circle cx="866.7" cy="413.6" r="4.5" fill="#2563eb" stroke="#ffffff" stroke-width="1.5"/>
<circle cx="991.1" cy="165.0" r="4.5" fill="#2563eb" stroke="#ffffff" stroke-width="1.5"/>
<circle cx="1115.6" cy="317.4" r="4.5" fill="#2563eb" stroke="#ffffff" stroke-width="1.5"/>
<circle cx="1240.0" cy="333.7" r="4.5" fill="#2563eb" stroke="#ffffff" stroke-width="1.5"/>
<circle cx="120.0" cy="472.1" r="4.5" fill="#f97316" stroke="#ffffff" stroke-width="1.5"/>
<circle cx="244.4" cy="616.9" r="4.5" fill="#f97316" stroke="#ffffff" stroke-width="1.5"/>
<circle cx="368.9" cy="529.9" r="4.5" fill="#f97316" stroke="#ffffff" stroke-width="1.5"/>
<circle cx="493.3" cy="319.3" r="4.5" fill="#f97316" stroke="#ffffff" stroke-width="1.5"/>
<circle cx="617.8" cy="461.3" r="4.5" fill="#f97316" stroke="#ffffff" stroke-width="1.5"/>
<circle cx="742.2" cy="619.5" r="4.5" fill="#f97316" stroke="#ffffff" stroke-width="1.5"/>
<circle cx="866.7" cy="339.5" r="4.5" fill="#f97316" stroke="#ffffff" stroke-width="1.5"/>
<circle cx="991.1" cy="160.8" r="4.5" fill="#f97316" stroke="#ffffff" stroke-width="1.5"/>
<circle cx="1115.6" cy="191.1" r="4.5" fill="#f97316" stroke="#ffffff" stroke-width="1.5"/>
<circle cx="1240.0" cy="230.5" r="4.5" fill="#f97316" stroke="#ffffff" stroke-width="1.5"/>
<line x1="742.2" y1="652.5" x2="758.2" y2="694.5" stroke="#2563eb" stroke-width="1.5" stroke-dasharray="4 4"/>
<circle cx="742.2" cy="652.5" r="7" fill="#fff" stroke="#2563eb" stroke-width="3"/>
<text x="758.2" y="686.5" class="label" fill="#2563eb">最低：2020年 41.96</text>
<line x1="991.1" y1="165.0" x2="901.1" y2="129.0" stroke="#2563eb" stroke-width="1.5" stroke-dasharray="4 4"/>
<circle cx="991.1" cy="165.0" r="7" fill="#fff" stroke="#2563eb" stroke-width="3"/>
<text x="901.1" y="121.0" class="label" fill="#2563eb">最高：2022年 100.93</text>
<line x1="742.2" y1="619.5" x2="760.2" y2="673.5" stroke="#f97316" stroke-width="1.5" stroke-dasharray="4 4"/>
<circle cx="742.2" cy="619.5" r="7" fill="#fff" stroke="#f97316" stroke-width="3"/>
<text x="760.2" y="665.5" class="label" fill="#f97316">最低：2020年 5657</text>
<line x1="991.1" y1="160.8" x2="971.1" y2="110.8" stroke="#f97316" stroke-width="1.5" stroke-dasharray="4 4"/>
<circle cx="991.1" cy="160.8" r="7" fill="#fff" stroke="#f97316" stroke-width="3"/>
<text x="971.1" y="102.8" class="label" fill="#f97316">最高：2022年 8986</text>
</svg>